<?xml version="1.0" encoding="utf-8"?>
<!-- Generator: Adobe Illustrator 21.1.0, SVG Export Plug-In . SVG Version: 6.00 Build 0)  -->
<svg version="1.1" id="Layer_1" xmlns="http://www.w3.org/2000/svg" xmlns:xlink="http://www.w3.org/1999/xlink" viewBox="0 0 838 763.2">
<g>
	<g transform="matrix(1,0,0,1,180,700)">
		<path fill-opacity="0" stroke="#80664D" stroke-width="15" d="M497.4,55.7C460.6,27.2,338.6-49.5,319.1-56.5
			c-21.1-7.6-43.3-4-61.2,8.8c-3.7,2.6-14.7,16.5-64.2,14.2c-5.4-0.3-11.9,6.7-30.3,3c-7-1.4-23.6,6.3-43.1-3.6
			c-12.4,6-23.1,4.9-26.1,4.7c-6.5-0.3-73,36.2-105.6,39.3c-10.9,1-25.1-4.3-30.3-4.1C-89.2,8-88.2-23.4-100.4-53.8
			c-13.1-32.7-10.3-50.7-15.5-56.9c-43.8-12.8-31.8-45-41.7-84.8c-9.7-39,0.7-57.7,2.6-71.2c-19.5-20-18.2-34.5-15.5-76.6
			c3.3-50.9,9.8-66.7,21.4-82.9c0.4-3.3-40.1-26.6-15.5-88.8c8.1-20.4,47.4-85.3,79.1-97.2c20.2-7.6,43.5-11.7,64.9-9.9
			c10.9,0.9,19.2,10.6,54.7,10.1c31.8-0.4,79.3-14.8,172.5,21.2C322.8-546,435.7-401.3,437.2-399.1c15.2,12.6,123.9,61.3,208.9,96.8
			c3.7,2.7,14.8,114-21.6,206.9C582.8,11,499,56.9,497.4,55.7z"/>
		<g transform="matrix(1,0,0,1,0,0)">
			<path fill="#FFCC99" d="M497.4,55.7C460.6,27.2,338.6-49.5,319.1-56.5c-21.1-7.6-43.3-4-61.2,8.8c-3.7,2.6-14.7,16.5-64.2,14.2
				c-5.4-0.3-11.9,6.7-30.3,3c-7-1.4-23.6,6.3-43.1-3.6c-12.4,6-23.1,4.9-26.1,4.7c-6.5-0.3-73,36.2-105.6,39.3
				c-10.9,1-25.1-4.3-30.3-4.1C-89.2,8-88.2-23.4-100.4-53.8c-13.1-32.7-10.3-50.7-15.5-56.9c-43.8-12.8-31.8-45-41.7-84.8
				c-9.7-39,0.7-57.7,2.6-71.2c-19.5-20-18.2-34.5-15.5-76.6c3.3-50.9,9.8-66.7,21.4-82.9c0.4-3.3-40.1-26.6-15.5-88.8
				c8.1-20.4,47.4-85.3,79.1-97.2c20.2-7.6,43.5-11.7,64.9-9.9c10.9,0.9,19.2,10.6,54.7,10.1c31.8-0.4,79.3-14.8,172.5,21.2
				C322.8-546,435.7-401.3,437.2-399.1c15.2,12.6,123.9,61.3,208.9,96.8c3.7,2.7,14.8,114-21.6,206.9C582.8,11,499,56.9,497.4,55.7z
				"/>
		</g>
	</g>
	<g>
		<path fill="none" d="M677.9,756.2C641.1,727.7,519.1,651,499.6,644c-21.1-7.6-43.3-4-61.2,8.8c-3.7,2.6-14.7,16.5-64.2,14.2
			c-5.4-0.3-11.9,6.7-30.3,3c-7-1.4-23.6,6.3-43.1-3.6c-12.4,6-23.1,4.9-26.1,4.7c-6.5-0.3-73,36.2-105.6,39.3
			c-10.9,1-25.1-4.3-30.3-4.1c-47.3,2.2-46.4-29.2-58.5-59.6C67.1,614,69.8,596,64.6,589.7c-43.8-12.8-31.8-45-41.7-84.8
			c-9.7-39,0.7-57.7,2.6-71.2c-19.5-20-18.2-34.5-15.5-76.6c3.3-50.9,9.8-66.7,21.4-82.9c0.4-3.3-40.1-26.6-15.5-88.8
			C24,165.1,63.3,100.2,95,88.3c20.2-7.6,43.5-11.7,64.9-9.9c10.9,0.9,19.2,10.6,54.7,10.1c31.8-0.4,79.3-14.8,172.5,21.2
			c116.2,44.8,229.1,189.6,230.6,191.7c15.2,12.6,123.9,61.3,208.9,96.8c3.7,2.7,14.8,114-21.6,206.9
			C763.3,711.5,679.5,757.4,677.9,756.2"/>
		<path fill="#BE9973" d="M536.8,518.2c0,0-34.5,49.5-29,94C515.8,559.2,536.8,518.2,536.8,518.2z M670.3,353.2c0,0-2,82.5-36,169.7
			C683.8,413.2,670.3,353.2,670.3,353.2z M637.8,340.2c0,0,2,57-19,96.8C651.8,389,637.8,340.2,637.8,340.2z M616.6,326.5
			c0,0-34,74.3-72.5,108.3C609.1,389,616.6,326.5,616.6,326.5z M470.1,474.5c0,0-79.8,41.2-149.5-68.3
			C387.8,495.2,470.1,474.5,470.1,474.5z M128.8,681c0,0-7.5-13.5-12-36C126.3,665.2,128.8,681,128.8,681z M116.1,688.2
			c0,0-12-17-14-43.3C109.6,671,116.1,688.2,116.1,688.2z M53.3,564.2c0,0-9.5-18.3-7.3-45.3C47.8,541,53.3,564.2,53.3,564.2z
			 M66.3,569c0,0-11-23.3-7.3-50.8C60.1,541.2,66.3,569,66.3,569z M60.1,426.5c0,0-5.5-19.5,0.5-45.1
			C60.1,401.2,60.1,426.5,60.1,426.5z M47.6,429.2c0,0-4.3-32.8,3-55.4C48.3,393,47.6,429.2,47.6,429.2z M34.3,421.2
			c0,0-8.5-20.9,0.4-44.4C32.7,396.7,34.3,421.2,34.3,421.2z M50.8,257.7c0,0-4.5-37,5.4-65.4C52.6,215.2,50.8,257.7,50.8,257.7z
			 M50.8,257.7c0,0-4.5-37,5.4-65.4C52.6,215.2,50.8,257.7,50.8,257.7z M31.3,255.5c0,0-4-38.3,4.1-63.1
			C33.1,215.5,31.3,255.5,31.3,255.5z"/>
		<g transform="matrix(1,0,0,1,359.293,596.059)">
		</g>
		<g transform="matrix(1,0,0,1,0,0)">
		</g>
		<g transform="matrix(1,0,0,1,0,0)">
		</g>
		<g transform="matrix(1,0,0,1,0,0)">
		</g>
		<g transform="matrix(1,0,0,1,0,0)">
		</g>
		<g transform="matrix(1,0,0,1,0,0)">
		</g>
		<g transform="matrix(1,0,0,1,0,0)">
		</g>
		<g transform="matrix(1,0,0,1,0,0)">
		</g>
		<g transform="matrix(1,0,0,1,0,0)">
		</g>
		<g transform="matrix(1,0,0,1,0,0)">
		</g>
		<g transform="matrix(1,0,0,1,0,0)">
		</g>
		<g transform="matrix(1,0,0,1,0,0)">
		</g>
		<g transform="matrix(1,0,0,1,0,0)">
		</g>
		<g transform="matrix(1,0,0,1,0,0)">
		</g>
		<g transform="matrix(1,0,0,1,0,0)">
		</g>
		<g transform="matrix(1,0,0,1,600,750)">
			<path fill="#FFD6AD" d="M-432.7-144c-71.7,24.6-75,3-80,14.8c-4.1,9.7,8.5,45.3,77,15.5c47.6-20.7,79.8-37,81.5-44.4
				C-353.1-162.9-388.9-159-432.7-144z M-492.2-277.5c-55.5,4.3-69-20.5-74-8.8c-4.1,9.7-9,81,59.5,51.2
				c47.6-20.7,93.6-39.2,95.2-46.6C-410.3-286.4-446-281-492.2-277.5z M-498.7-437c-55.8-5-58-1-69.3,23.5
				c-8.6,18.7-13,51.8,55.5,18.3c46.7-22.8,78.6-24.5,80.2-31.9C-431.1-431.9-452.6-432.9-498.7-437z M-465.7-619
				c-25.8-11-37.2-14.7-45-4.5c-26.8,35-53.5,55.5-9,57c44.2,1.5,59.8,6.7,70-1.1C-442.7-573-439.9-608-465.7-619z M125.8-375
				c-30.8-13.5-82-39.8-86-34.3c-5.2,7.2,35.5,36.5,60.3,49.8c31.8,17,104.5,40.8,108.2,29.9C210.7-336.6,151.5-363.8,125.8-375z
				 M43.3-176c-26-14.5-77.7-38.8-81.3-33c-3.5,5.8,29,33.1,52.5,48.5c34,22.3,93.5,44,97.2,33.9C115.1-135.5,67.8-162.4,43.3-176z"
				/>
			<g transform="matrix(1,0,0,1,0,0)">
			</g>
			<g transform="matrix(1,0,0,1,-60,-122)">
			</g>
			<g transform="matrix(1,0,0,1,-62.5,-261)">
			</g>
			<g transform="matrix(1,0,0,1,-26.5,-440)">
			</g>
			<g transform="matrix(1,0,0,1,566.5,-185)">
			</g>
			<g transform="matrix(1,0,0,1,473.5,17)">
			</g>
		</g>
		<defs>
			<filter id="Adobe_OpacityMaskFilter" filterUnits="userSpaceOnUse">
				<feColorMatrix  type="matrix" values="1 0 0 0 0  0 1 0 0 0  0 0 1 0 0  0 0 0 1 0"/>
			</filter>
		</defs>
		<mask maskUnits="userSpaceOnUse" id="AzZqFpbgkl_1_">
			<path fill="#FFFFFF" filter="url(#Adobe_OpacityMaskFilter)" stroke="#FFFFFF" stroke-width="10" d="M497.9,56.2
				C461.1,27.7,339.1-49,319.6-56c-21.1-7.6-43.3-4-61.2,8.8c-3.7,2.6-14.7,16.5-64.2,14.2c-5.4-0.3-11.9,6.7-30.3,3
				c-7-1.4-23.6,6.3-43.1-3.6c-12.4,6-23.1,4.9-26.1,4.7C88.1-29.3,21.6,7.2-11,10.3c-10.9,1-25.1-4.3-30.3-4.1
				c-47.3,2.2-46.4-29.2-58.5-59.6c-13.1-32.7-10.3-50.7-15.5-56.9c-43.8-12.8-31.8-45-41.7-84.8c-9.7-39,0.7-57.7,2.6-71.2
				c-19.5-20-18.2-34.5-15.5-76.6c3.3-50.9,9.8-66.7,21.4-82.9c0.4-3.3-40.1-26.6-15.5-88.8c8.1-20.4,47.4-85.3,79.1-97.2
				c20.2-7.6,43.5-11.7,64.9-9.9c10.9,0.9,19.2,10.6,54.7,10.1c31.8-0.4,79.3-14.8,172.5,21.2c116.2,44.8,229.1,189.6,230.6,191.7
				c15.2,12.6,123.9,61.3,208.9,96.8c3.7,2.7,14.8,114-21.6,206.9C583.3,11.5,499.5,57.4,497.9,56.2"/>
		</mask>
		<g transform="matrix(1,0,0,1,180,700)" mask="url(#AzZqFpbgkl_1_)">
			<g transform="matrix(1,0,0,1,0,0)">
			</g>
			<g transform="matrix(1,0,0,1,0,0)">
			</g>
			<g transform="matrix(1,0,0,1,0,0)">
			</g>
			<g transform="matrix(1,0,0,1,0,0)">
			</g>
			<g transform="matrix(1,0,0,1,0,0)">
			</g>
			<g transform="matrix(1,0,0,1,0,0)">
			</g>
		</g>
	</g>
	<path fill="#80664D" d="M283.3,541c71.5,66.5-15.8,135.8-15.8,135.8s-3.3,1.5-3-2.3C335.3,601,299.1,567.2,283.3,541z M298.8,429.2
		c0,0,8.5,11,6,47.5c-2.5,37-3.5,42-18,49.5s-40,16-57.5,24s-109.1,62-166.5,39c-5-2,57,22.5,126-9c48.3-22.1,52-26.5,73-33.5
		c18.7-6.2,25-15.5,31-20.5s19-16.5,19-54S298.8,429.2,298.8,429.2z M286.3,285.2c0,0,31,40.5,29.5,77s-8.5,58.5-78.5,69
		s-194.5,38.5-217.5-4c-2.5-4.5,12.5,32.8,77,31c17.5-0.5,34-2.5,63-6s110.5-16.5,128.5-25.5s36.2-29.4,34.5-73.5
		C321.3,314.2,286.3,285.2,286.3,285.2z M212.8,131.7c38-12,79.5,14.5,88,88c-5.5,76-40,89.5-109.5,74.5c-69.5-18-116.5,9-169-25.5
		c7,8.5,28,29,91.5,25.5c48.9-3.7,110,20.5,147.5,8s46.5-53.5,45.5-81S286.8,107.7,212.8,131.7z M120.6,118.5
		c0,0,24.5-2.3,89.8,29.3C154.3,110.7,120.6,118.5,120.6,118.5z M179.3,100.7c0,0,11,15.3,20.5,40.3
		C198.8,115.2,179.3,100.7,179.3,100.7z"/>
	<g>
		<g transform="matrix(1,0,0,1,600,750)">
			<g transform="matrix(1,0,0,1,0,0)">
				<path fill-opacity="0" stroke="#80664D" stroke-width="15" d="M-264.2-741.8c-32.5-2-82.9-4.6-98,61c-17,74-35,94-44.5,125.5
					c-6.9,22.7-27,54.5,25,75.5c42.1,17,147-50.5,156.5-86.5c0.6-2.2-37,148.5,77.5,162s164-45,164-45s-30.6-74.8-47-137
					c-18.5-70-24-131-148.5-151C-235.2-746.3-231.7-739.8-264.2-741.8z"/>
				<path fill="#FFCC99" d="M-264.2-741.8c-32.5-2-82.9-4.6-98,61c-17,74-35,94-44.5,125.5c-6.9,22.7-27,54.5,25,75.5
					c42.1,17,147-50.5,156.5-86.5c0.6-2.2-37,148.5,77.5,162s164-45,164-45s-30.6-74.8-47-137c-18.5-70-24-131-148.5-151
					C-235.2-746.3-231.7-739.8-264.2-741.8z"/>
			</g>
		</g>
		<g transform="matrix(1,0,0,1,600,750)">
			<path fill="#FFCC99" d="M-225.7-562.8c-12.3,24.5-19.5,33.5-57.2,62.8c-31.3,32.7,48.6,106.6,131.7,113.2
				c113,9,155.5-49.5,192-43.5C-13.2-476.3-174.3-665.4-225.7-562.8z"/>
		</g>
		<g transform="matrix(1,0,0,1,600,750)">
			<g transform="matrix(1,0,0,1,0,0)">
				<path fill="#80664D" d="M-210.7-680.8c0,0,30.8,49-12.5,99C-192.2-628.5-210.7-680.8-210.7-680.8z"/>
			</g>
			<g transform="matrix(1,0,0,1,0,0)">
				<path fill="#80664D" d="M-188.2-679.8c0,0,18.5,53.8-28.3,96C-180.4-628.3-188.2-679.8-188.2-679.8z"/>
			</g>
			<g transform="matrix(1,0,0,1,0,0)">
				<path fill="#80664D" d="M-171.9-635.8c0,0-10,50.8-50.5,62C-189.4-590.5-171.9-635.8-171.9-635.8z"/>
			</g>
			<g transform="matrix(1,0,0,1,7,17.5)">
				<path fill="#80664D" d="M-156.4-628.5c0,0-22.5,41.5-76.3,43.8C-194.7-590.8-156.4-628.5-156.4-628.5z"/>
			</g>
		</g>
		<g transform="matrix(1,0,0,1,600,750)">
			<path fill="#BE9973" d="M-224.7-680.8c11.5,53.5-1.4,122.8-57,157c-48,29.5-105,54.3-135,7.5c6,31,33.5,39.5,48.5,41
				s54.5-9,106.5-47.5C-183.2-580.9-218.7-673.5-224.7-680.8z"/>
			<g transform="matrix(1,0,0,1,0,0)">
			</g>
		</g>
		<g transform="matrix(1,0,0,1,600,750)">
			<g transform="matrix(1,0,0,1,0,0)">
				<path fill="#FFE0C1" d="M-340.2-600.3c-35.5,5.6-67.8,53.3-71,68.5c-0.5,10.5,15.8,11,55,4s61-17.2,61-48
					C-295.2-593.8-302.2-606.3-340.2-600.3z"/>
			</g>
			<g transform="matrix(1,0,0,1,0,0)">
				<path fill="#FFEAD6" d="M-335.7-597.3c-52.5,7-65.5,57-67,69.5c50,2,91-17.5,91-17.5S-283.2-604.3-335.7-597.3z"/>
			</g>
		</g>
		<g transform="matrix(1,0,0,1,600,750)">
			<g transform="matrix(1,0,0,1,0,0)">
				<path fill="#FFD6AD" d="M-310.4-724.3c-8,7.5,6.8,31.5,55.3,18s162.5,25,176.5,24s-43.8-31.4-105.2-43.3
					C-230.4-734.5-302.4-731.8-310.4-724.3z"/>
			</g>
			<g transform="matrix(1,0,0,1,0,0)" opacity="0">
				<path fill="#FFD6AD" d="M-220.2-528.8c-14.9-2.6-36.5,26.5-41.5,43s-2.7,57.6,3,60C-249.2-421.8-211.7-527.3-220.2-528.8z"/>
			</g>
		</g>
	</g>
</g>
</svg>
