<svg id="Layer_1" data-name="Layer 1" xmlns="http://www.w3.org/2000/svg" viewBox="0 0 498.14 693.23"><defs><style>.cls-1{fill:#d89393;}.cls-2{fill:#362525;}.cls-3{fill:#e0a9a9;}.cls-4{fill:#e8bebe;}.cls-5{fill:#a11;}.cls-6{fill:#600;}.cls-7{fill:#b51c1c;}.cls-8{fill:#c12828;}.cls-9{fill:#c33;}.cls-10{fill:#ebadad;}.cls-11{fill:none;stroke-width:8px;}.cls-11,.cls-15,.cls-16{stroke:#600;stroke-miterlimit:10;}.cls-12{fill:#a26e6e;}.cls-13{fill:#d14848;}.cls-14{fill:#d55a5a;}.cls-15{fill:#c30;}.cls-16{fill:#c00;stroke-width:2px;}.cls-17{fill:#f03;}</style></defs><title>Heart</title><path class="cls-1" d="M103.93,38.2s29.38,64.45-3.88,133.73l54,97.27s76.89-109,25.05-246c0,0-17.28-26-46.65-19S103.93,38.2,103.93,38.2Z"/><path class="cls-2" d="M199.6,105a15.45,15.45,0,0,1-3-.39C202.16,200.94,154,269.2,154,269.2l-54-97.27c33.26-69.27,3.88-133.73,3.88-133.73s-.86-27,28.51-34A42.74,42.74,0,0,1,142.37,3c23.29,0,36.71,20.2,36.71,20.2a282.45,282.45,0,0,1,9,28,32.82,32.82,0,0,0,3.59,1.91,284.33,284.33,0,0,0-9.74-30.95l-.12-.32-.19-.28C181,20.66,167,0,142.37,0a45.94,45.94,0,0,0-10.63,1.28c-16.35,3.9-23.88,13.74-27.31,21.3a38.65,38.65,0,0,0-3.51,15.71l0,.6.25.55c.07.16,7.24,16.15,10.31,40.24,2.82,22.15,2.65,55.9-14.17,90.94l-.67,1.4.75,1.36,54,97.27,2.32,4.18,2.76-3.91c.8-1.13,19.66-28.17,32.4-72.53a283.35,283.35,0,0,0,11.16-79C200,114.6,199.87,109.78,199.6,105Z"/><path class="cls-1" d="M284.85,103.14l.82-1.44c15.68-27.44,15.87-64.14,15.87-64.5v-.41l.29-.29a17.23,17.23,0,0,1,11.71-4.29,12.71,12.71,0,0,1,10.86,5.49l.19.31-.06.36c-.09.55-9,55-8,64.74l.11,1.14Z"/><path class="cls-2" d="M313.54,33.2a11.79,11.79,0,0,1,10,5s-9,55-8,65l-29-1c16-28,16-65,16-65a16.33,16.33,0,0,1,11-4m0-2a18.31,18.31,0,0,0-12.41,4.59l-.59.59v.83c0,.36-.2,36.81-15.74,64l-1.64,2.88,3.31.11,29,1,2.29.08-.23-2.28c-1-9.63,7.89-63.93,8-64.48l.12-.72-.38-.63a13.76,13.76,0,0,0-11.71-6Z"/><path class="cls-3" d="M315.54,103.2l-1.22,0c-3.27-15.06,3.3-51.44,4-69.07a11.22,11.22,0,0,1,5.21,4.11S314.54,93.2,315.54,103.2Z"/><path class="cls-1" d="M322,111l.6-1.23c10.9-22.53,14.36-42.38,16.22-53.05.73-4.21,1.18-6.75,1.78-8a9.17,9.17,0,0,1,8.49-4.89,14.72,14.72,0,0,1,6.73,1.77c5.13,2.64,5.29,8.86,4.65,11.78v.06l0,.06c-.11.31-10.89,31.09-7.95,56.55l.15,1.29Z"/><path class="cls-2" d="M349.13,44.85a13.77,13.77,0,0,1,6.27,1.66c5.81,3,4.13,10.68,4.13,10.68s-11,31-8,57l-28-4c15-31,16-57,18-61a8.2,8.2,0,0,1,7.6-4.34m0-2h0a10.15,10.15,0,0,0-9.38,5.45c-.67,1.34-1.12,3.93-1.87,8.23-1.85,10.62-5.3,30.39-16.14,52.79l-1.19,2.46,2.71.39,28,4,2.57.37-.3-2.58c-2.91-25.25,7.79-55.8,7.9-56.1l0-.12,0-.12c.08-.38,1.92-9.24-5.17-12.89a15.71,15.71,0,0,0-7.19-1.88Z"/><path class="cls-3" d="M359.54,57.2s-9.56,27-8.42,51.67c-2.48.23-4.41-1.07-4.41-5.67,0-11.07,8.19-40.88,8.93-56.55C361.17,49.71,359.54,57.2,359.54,57.2Z"/><path class="cls-1" d="M152.83,262.81h-.42l-.78,0-.59,0a3,3,0,0,1-3-1.92c-.84-1.66-.89-4-.93-6.13,0-.65,0-1.26-.06-1.77-.34-4.35-.46-8.92-.37-13.58A152.21,152.21,0,0,1,153,198.92a146.11,146.11,0,0,1,25.25-48.66,159.83,159.83,0,0,1,23-23.62,181.77,181.77,0,0,1,15-11.26c.7-.47,1.64-1,2.64-1.51,1.86-1,4.4-2.35,5-3.43.72-1.31.43-4.45.26-6.33,0-.42-.07-.82-.1-1.16a69.42,69.42,0,0,0-4.28-18.59c-3.41-9.45-8.48-19.23-15.5-29.9-1.78-2.7-3.69-5.46-5.68-8.21-.23-.32-.46-.6-.67-.86a5.49,5.49,0,0,1-1.6-4c.13-3.94,4-8.31,11.59-13,2.46-1.52,4.19-2.17,5.79-2.17,2,0,3.76,1.1,5.24,3.35s3.32,4.7,5,7c1.41,1.87,2.87,3.8,4.22,5.76C238.39,57.13,248.65,73,252.46,89.95a35.37,35.37,0,0,1,1,8.67,241.06,241.06,0,0,1,48.57-5A210.81,210.81,0,0,1,336,96.3c21.9,3.59,51.16,13.32,66.13,39.33,6.42,11.14,9.35,23.42,9.25,38.63a149.74,149.74,0,0,1-1.41,21.42c-.05.38-.11.91-.19,1.54-.83,7.23-1.71,11.33-4,12.33a4.8,4.8,0,0,1-1.92.33,22.51,22.51,0,0,1-3.24-.34c-.59-.09-1.15-.17-1.49-.19l-50.5-2.75.51-1.8c1.94-6.88,7.86-27.8-.73-38.66-13-16.48-38.57-18.26-48.94-18.26q-1.62,0-3.19.05c-34.61,1.11-64.68,21.14-78.48,52.27a107.79,107.79,0,0,0-6,17.71c-.47,1.88-.85,3.79-1.23,5.63A60.82,60.82,0,0,1,207,236.16q-2,4.61-4,9.24c-.39.91-.87,1.87-1.32,2.79a25.46,25.46,0,0,0-2.28,5.61l-.07.33c-.07.31-.14.63-.16.82l.43.44.66.68a69.53,69.53,0,0,0,6.4,5.94l3.43,2.81Z"/><path class="cls-2" d="M213.72,27.76c1.48,0,2.75.8,4,2.68,2.87,4.37,6.3,8.44,9.27,12.75,9.78,14.2,20.2,30,24,47.09a31.3,31.3,0,0,1,.83,10.22A240.91,240.91,0,0,1,302,95.12a209,209,0,0,1,33.7,2.66c25.59,4.19,51.6,15.19,65.08,38.6,6.86,11.92,9.14,24.37,9,37.87a149.58,149.58,0,0,1-1.39,21.22c-.36,2.51-1,11.71-3.32,12.71a3.46,3.46,0,0,1-1.32.2c-1.53,0-3.6-.47-4.64-.53l-10.54-.58-38.08-2.08c3.29-11.64,7.19-29.65-1-40-11.27-14.24-32.49-18.83-50.12-18.83q-1.64,0-3.24.05c-34.73,1.12-65.69,21.33-79.81,53.16a109,109,0,0,0-6.11,18c-1.53,6.16-2.13,12.2-4.69,18q-2,4.62-4,9.25c-1.18,2.73-3.08,5.78-3.7,8.68-.48,2.26-.49,1.79,1.23,3.61a70.81,70.81,0,0,0,6.54,6.07L171.79,262l-18.91-.66h-.47c-.57,0-1,0-1.38,0-.77,0-1.18-.15-1.66-1.1-.93-1.84-.67-5.33-.83-7.34-.35-4.47-.46-9-.36-13.44a150.94,150.94,0,0,1,6.27-40.11,145.44,145.44,0,0,1,25-48.16,158,158,0,0,1,22.8-23.4,179.49,179.49,0,0,1,14.86-11.17c2.08-1.4,7-3.33,8.12-5.47s.49-6.17.34-8.31a71.31,71.31,0,0,0-4.37-19,145,145,0,0,0-15.66-30.21q-2.76-4.2-5.72-8.26c-1.11-1.53-2-2.16-2-3.91.16-4.73,7.4-9.6,10.88-11.76,2-1.21,3.58-1.95,5-1.95m0-3c-2.38,0-4.66,1.21-6.58,2.39-8.13,5-12.15,9.67-12.3,14.21a6.91,6.91,0,0,0,1.93,5c.19.24.4.5.62.8,2,2.73,3.88,5.47,5.64,8.15,7,10.57,12,20.25,15.34,29.58a68,68,0,0,1,4.2,18.19c0,.35.06.75.1,1.19.13,1.36.42,4.56-.08,5.47-.46.74-3.11,2.15-4.39,2.83-1,.55-2,1.07-2.78,1.59a183.23,183.23,0,0,0-15.11,11.35,161.28,161.28,0,0,0-23.23,23.84,147.6,147.6,0,0,0-25.51,49.16,153.69,153.69,0,0,0-6.4,40.91c-.1,4.72,0,9.34.37,13.73,0,.45,0,1,.06,1.68,0,2.26.09,4.81,1.09,6.78a4.48,4.48,0,0,0,4.34,2.74l.65,0,.73,0h.37l9.46.33,9.46.33,2.15.08,31.69,1.11,8.86.31-6.85-5.63a68.08,68.08,0,0,1-6.26-5.81l-.55-.57v0l.07-.33a24.52,24.52,0,0,1,2.16-5.25c.47-.94.95-1.91,1.36-2.86,1.28-3,2.63-6.08,4-9.23A62,62,0,0,0,212,223.83c.37-1.83.75-3.72,1.21-5.57a106.25,106.25,0,0,1,5.94-17.46c13.57-30.6,43.13-50.28,77.16-51.38,1,0,2.1-.05,3.15-.05,10.15,0,35.13,1.72,47.76,17.69,8.12,10.26,2.36,30.63.47,37.32l-1,3.61,3.74.2,19,1,19,1,10.54.58c.27,0,.82.1,1.35.18a23.63,23.63,0,0,0,3.46.35,6.25,6.25,0,0,0,2.52-.45c3-1.3,4-5.58,4.91-13.54.07-.61.13-1.13.18-1.5a151.32,151.32,0,0,0,1.42-21.65c.11-15.48-2.9-28-9.45-39.37-15.27-26.52-45-36.42-67.19-40.06A212.26,212.26,0,0,0,302,92.12a242.4,242.4,0,0,0-47.09,4.67,40.12,40.12,0,0,0-1-7.17c-3.87-17.23-14.22-33.22-24.48-48.13-1.37-2-2.84-3.94-4.26-5.82-1.69-2.24-3.44-4.55-5-6.88-1.75-2.68-3.94-4-6.5-4Z"/><path class="cls-3" d="M409.85,174.25c-56.27-23.51-142.62-51.74-185.13,10.31-1.41,2.05-3,6.29-4.79,7.83-3.4,3-9.95,2-14.67,1.15-10-1.75-21.46-7.8-24.56-18.25-5.06-17,17.14-34.25,28.2-43.63,12.65-10.74,25.14-18.5,22.24-37.19-1.7-10.94-6.82-21.52-11.84-31.27-4.11-8-12.78-17.46-15.19-25.91-.69-2.44-1.45-1.29-.9-3.4.47-1.8,8.17-6.61,10.37-6.28,2.58.38,2,.95,3.61,2.16,4,3,7.19,9.64,10,13.66C237.68,58.77,254,80.83,251.83,100.5,310.8,88.07,410.4,93.39,409.85,174.25Z"/><path class="cls-4" d="M216.37,155.36s73.33-62.67,179.33-2.67C395.71,152.7,327,48,216.37,155.36Z"/><path class="cls-5" d="M232.8,689.23c-22.84,0-42.54-7.8-58.53-23.18C135.49,628.77,91.53,586.52,58,538.24,28.63,496,10.45,444.17,5.43,388.45c-4-43.87,10.81-85,41.55-115.77,26.87-26.9,63-33,97.93-38.88,9.14-1.54,18.6-3.13,27.83-5.08a413.61,413.61,0,0,1,85.07-9,346.69,346.69,0,0,1,72.37,7.36c5,1.07,10,2.07,14.86,3,36,7.2,70,14,92,47.8,20.81,31.9,31.27,74,32,128.73.63,47.82-17.59,100.72-52.68,153-33.29,49.58-73.9,88-117.43,111.05C276,682.82,253.17,689.23,232.8,689.23Z"/><path class="cls-6" d="M257.81,223.71A342.62,342.62,0,0,1,329.34,231c42.15,9,80.35,12.33,104.35,49.12,24.23,37.14,30.77,83.11,31.34,126.6.71,53.93-22.44,106.67-52,150.71s-68.77,84.73-116,109.75c-20,10.62-42.48,18.07-64.25,18.07-19.94,0-39.32-6.25-55.76-22.06C136.23,623.93,93.69,582.62,61.28,536c-30.35-43.68-47.1-95-51.86-147.87-3.8-42.15,10.45-82.6,40.4-112.59,32.79-32.83,79-33.44,123.75-42.87a411.09,411.09,0,0,1,84.24-8.92m0-8v0a417.7,417.7,0,0,0-85.9,9.09c-9.15,1.93-18.56,3.51-27.67,5-35.55,6-72.32,12.19-100.09,40a146.72,146.72,0,0,0-34.73,54.7,149.76,149.76,0,0,0-8,64.26c5.08,56.41,23.5,108.87,53.26,151.72,33.76,48.6,79.8,92.85,116.78,128.41,16.77,16.12,37.39,24.29,61.3,24.29,21,0,44.54-6.57,68-19C344.91,650.85,386,612,419.68,561.87c16.42-24.45,29.28-49.13,38.22-73.33,10.39-28.14,15.49-55.71,15.14-81.94-.33-25.39-2.62-47.4-7-67.29-5.32-24.25-14-45.64-25.66-63.57-23-35.21-57.75-42.17-94.57-49.54-4.83-1-9.82-2-14.8-3a350.65,350.65,0,0,0-73.2-7.44Z"/><path class="cls-7" d="M465,406.7c.36,27.24-5.82,55.8-16.71,83.84-29.15,75.05-92.09,146.28-153.85,178-25,6.29-55.8,9.76-71.44-4.8-29-27-19-40-74-60-26.21-9.53-50.6-28.84-68.57-42.48h0C40.95,513,19.26,467.88,10,393.88-5.1,272.38,116.89,224.2,257.95,224.2c103.71,0,160.13,17.19,187.18,76.85C458.52,330.55,464.51,366.16,465,406.7Z"/><path class="cls-8" d="M465,406.7c.36,27.24-5.82,55.8-16.71,83.84C295,740.7,268.52,594.09,190,562.7c-75-30-86.56-44.24-115.5-84.5-23-32-49-163,73-205S272,304.7,302,328.7c6.8,5.44,35.51,16.46,57,5,15-8,31,1.29,43-8,27-21,27,0,50-8C465.43,347.2,464.51,366.16,465,406.7Z"/><path class="cls-9" d="M210.54,291.2c-42-10-118,34-113,116s133,140,155,110c21.71-29.61,12.84-48.19,26-113C291.54,340.2,252.54,301.2,210.54,291.2Z"/><path class="cls-9" d="M350.54,391.2c-53-6-34.26,18.33-51,108-14,75,50,105,83,49,35.95-61,59-114,48-136S392.81,396,350.54,391.2Z"/><path class="cls-10" d="M253,354.7c-19.41-22.65-51,8-34,21S277,382.7,253,354.7Z"/><path class="cls-10" d="M200,396.7c10,13.75,26-2,12-13S192,385.7,200,396.7Z"/><path class="cls-11" d="M24.54,326.2c61.73-70.2,148.35-95.15,206-76.62"/><path class="cls-1" d="M490.09,297.14c-2.47-.35-60.58-8.67-69.09-26.31-2.46-5.09-2.84-9-1.15-11.74,2.06-3.28,6.48-3.64,8.28-3.64l.59,0,.21,0,.17.12c26.51,18.95,60.84,20,61.18,20h.27l.2.17c4.79,4.07,7,8.13,6.59,12.09-.61,5.75-6.54,9-6.79,9.14l-.22.12Z"/><path class="cls-2" d="M428.13,256.21h.53c27,19.3,61.6,20.18,61.6,20.18,14.37,12.21-.07,20-.07,20s-60.08-8.42-68.52-25.89c-6.52-13.51,3.92-14.3,6.46-14.3m0-1.5c-1.93,0-6.66.39-8.92,4-1.84,2.93-1.47,7.13,1.11,12.46,8.69,18,67.18,26.38,69.66,26.72l.49.07.43-.23c.27-.14,6.53-3.59,7.18-9.72.44-4.22-1.86-8.5-6.85-12.74l-.4-.34h-.53c-.34,0-34.47-1.1-60.77-19.9l-.34-.24-.42,0s-.24,0-.64,0Z"/><path class="cls-12" d="M493.69,293.64a15.52,15.52,0,0,1-3.49,2.76s-34.25-4.79-54.66-14.67v-.65s26.62,7,42.41,10.37A87.55,87.55,0,0,0,493.69,293.64Z"/><path class="cls-8" d="M338.67,335.09A45.46,45.46,0,0,1,323.09,332l-1-.36-1-.34,0-1.05c-.83-39.35-40.58-78-80.26-78a63.14,63.14,0,0,0-10,.79l-2.12.34.41-2.1c3.6-18.66,16.53-35.79,36.4-48.24s45.51-19.36,72-19.36c29,0,56.37,11.71,77.2,33,18.89,19.28,29.55,43.93,29.31,67.74,9.89,6.7,15.55,16.4,13.5,23.3-1.13,3.8-5,8.32-16.8,8.32-7.11,0-16.24-1.66-27.14-4.93-3,10.45-12.91,16-28.93,16a97.38,97.38,0,0,1-22.2-2.85C355.89,331.43,347.88,335.09,338.67,335.09Z"/><path class="cls-6" d="M337.54,185.2c59.65,0,106,51,105,100,15.57,10.12,22,29.33-1.78,29.33-6.79,0-16-1.56-28.22-5.33-2.7,13.13-15.71,16.36-27.85,16.36a96.52,96.52,0,0,1-22.71-3c-7.58,8.67-16.07,11.07-23.31,11.07-7.52,0-13.69-2.58-16.13-3.4-.81-38.58-39.54-79.43-81.76-79.43a64.35,64.35,0,0,0-10.21.81c7.24-37.5,52.37-66.38,107-66.38m0-3c-26.8,0-52.67,7-72.84,19.58s-33.4,30.15-37.08,49.23l-.81,4.21,4.23-.68a61.6,61.6,0,0,1,9.74-.77c38.93,0,77.94,37.89,78.76,76.49l0,2.11,2,.67,1,.35a46.83,46.83,0,0,0,16.09,3.2c9.37,0,17.54-3.6,24.32-10.72a98.84,98.84,0,0,0,21.7,2.68c19.57,0,27.17-7.88,29.91-15.6,10.42,3,19.21,4.57,26.15,4.57,13.44,0,17.19-5.89,18.23-9.4,2.18-7.35-3.43-17.46-13.44-24.51,0-24-10.79-48.65-29.75-68a112.09,112.09,0,0,0-34.75-24.16,106.73,106.73,0,0,0-43.52-9.25Z"/><path class="cls-9" d="M448.19,289.63c-1.47-1.4-4.9-3.23-5.64-4.89-1.42-3.2-.42-9.9-1-13.55a91.35,91.35,0,0,0-8.1-25.5,104.51,104.51,0,0,0-12.82-20.15,109.57,109.57,0,0,0-51.49-35.41c-48.21-15.4-127.65,4.85-138.58,61.45,36-5.81,71.62,20,85.74,52,1.54,3.5,2.6,11.41,4.79,14.58,2.73,4,11.37,4.53,16.72,4.61,9.47.14,17.58-5.66,26.45-5.43,9,.24,17.48,2.26,26.66.91,4.93-.72,10.12-2,14.3-4.88,2.68-1.82,5.5-7,7.67-7.34,4-.61,12.23,4,16.35,4.7,5.41,1,20.85,3.7,25.48-.82C460.62,304.19,452.12,293.32,448.19,289.63ZM394.3,246.2"/><path class="cls-13" d="M442.55,284.06l-.2.15-.45.28c-14,8.6-105,33.23-114.86,21.54-10.67-12.66-12.84-33.57-43.86-52.06-19.68-11.74,49.52-37,84.53-32.27,23.4,3.18,29.18,7.27,35.71,11.41,1.09.7,2.21,1.4,3.43,2.09l.13.07c.71.46,1.43.9,2.16,1.33,0,0,0,0,0,0,8,5.19,23.45,17.22,29.42,21.93h0l.48,1.57c.28,1,.54,1.9.79,2.85a.29.29,0,0,0,0,.09c.13.52.26,1,.38,1.54s.26,1.09.38,1.64c.24,1.09.45,2.19.65,3.29.09.51.18,1,.26,1.53,0,0,0,.09,0,.13v0A78,78,0,0,1,442.55,284.06Z"/><path class="cls-1" d="M395.55,249c9.6,19.35,78.71,28.29,78.71,28.29s16.69-8.75.22-22.21c0,0-39.83-.74-70.79-22C403.69,233.12,387.14,232.09,395.55,249Z"/><path class="cls-12" d="M475,276.89c-.45.29-.73.44-.73.44s-62.95-8.14-77-25.71c16.38,7.8,47.08,20,65.78,20.5C470.23,272.32,473.65,274.31,475,276.89Z"/><path class="cls-12" d="M473.87,258.08a9.4,9.4,0,0,1,5.25,8.55c-.17,5.29-2.33,8.07-5.58,8.82-2.61.6-4.42-5.17-4.17-9.42S473.87,258.08,473.87,258.08Z"/><path class="cls-4" d="M454.32,252.79s13.3,3.82,14.47,5.07-.94,5.07-.83,9.67,1.68,7.76,4,8.78,5.51-1.27,5.51-1.27l2.73-3.17s-4.82,3.24-6.32,2.66-5.67-9-.33-15.83C476.87,255.22,454.32,252.79,454.32,252.79Z"/><path class="cls-2" d="M395.55,249a24.39,24.39,0,0,0,7.75,7,74.15,74.15,0,0,0,9.36,4.81,145.8,145.8,0,0,0,20.06,6.84c6.85,1.83,13.75,3.49,20.71,4.88s14,2.69,21,3.76h0l-.59.11a16.67,16.67,0,0,0,4.91-4.19,8.84,8.84,0,0,0,2-5.76,10.89,10.89,0,0,0-2.25-5.83,26.09,26.09,0,0,0-4.63-4.77h0l.61.23c-3.2,0-6.32-.28-9.46-.6s-6.26-.72-9.36-1.27A152.74,152.74,0,0,1,437.26,250a135.21,135.21,0,0,1-17.65-6.73,60.48,60.48,0,0,1-15.91-10.1c5.68,2.75,11.1,5.68,16.77,8.21a133,133,0,0,0,17.47,6.33,169.65,169.65,0,0,0,18.12,4.22,162.44,162.44,0,0,0,18.44,2.24l.39,0,.23.2h0a28,28,0,0,1,5,5.15,16.19,16.19,0,0,1,1.81,3.22,11.31,11.31,0,0,1,.81,3.7,10.85,10.85,0,0,1-2.44,7.05,18.56,18.56,0,0,1-5.57,4.74l-.26.15-.33,0h0c-3.57-.41-7.09-.94-10.62-1.51s-7-1.19-10.55-1.9c-7-1.42-14-3-20.87-5a147.88,147.88,0,0,1-20.26-7.25,52,52,0,0,1-9.37-5.43C399.57,255.12,396.87,252.4,395.55,249Z"/><path class="cls-2" d="M468,267.53s.51,4.4,2.5,6.42a11.94,11.94,0,0,0,4.82,2.76l-2.12.62S466.21,274.61,468,267.53Z"/><path class="cls-2" d="M473.54,258.7c-3.5,4.83-2.85,11.67-.68,14.67C472.86,273.36,466.79,266,473.54,258.7Z"/><path class="cls-14" d="M312.71,248.27c-6.46,13.07,22,50.84,50.67,46s61-5.87,65.67-12.87-23.67-2.5-40-16.25-21.09-18-42-25.08C332.71,235.2,316.71,240.17,312.71,248.27Z"/><path class="cls-15" d="M307,373.72c-.09.3-.18.61-.26.93a12.8,12.8,0,0,1-1.81,1.08h0Z"/><path class="cls-15" d="M137.86,433c-.78.62-1.56,1.28-2.34,2A11.43,11.43,0,0,1,137.86,433Z"/><path class="cls-15" d="M137,490.46a1.48,1.48,0,0,1,.24-.44Z"/><path class="cls-15" d="M307,373.72c-.09.3-.18.61-.26.93a12.8,12.8,0,0,1-1.81,1.08h0Z"/><path class="cls-16" d="M451.82,456.9c-21.45-31.83-46.61-22-54.28-27.7-8-6-21-40-47-54s-20-25-20-25c10-47-42-112-58.16-107.77s-18.76,19.77-18.76,19.77,48,12.92,56.69,64.43c.89,5.3.11,14.72.11,14.72-6.75,39.48-71.25,51.67-92.85,71.44-23.43,21.44-52-1.76-79.71,20.19,5.37-3.66,21.16-10.58,59.15-4.28,0,0-11.69,10.41-20.26,32.41-8.48,21.77-30.38,12.64-39.44,28.88,1-1.34,5.61-5.44,26.42-11.9,0,0,10.18-.68,20.75-19.07,0,0,5.92-20.24,24.63-31.51,0,0,3.79-5.17,19.6-15.66s76.2-36.12,76.19-36.12c-11.6,11.14-58.39,56.51-78.36,82.47-23.37,30.37-33.37,92.51-25,112,0,0-3.63-50.76,25-102,0,0-15,68,21,115,0,0,6,7,1,15s-17,18-21,42,6.94,34,10,39c-.39-.72-6-11.37-7-23-1-12,3-24,3-24s15,10,18,16c2.83,5.66-3.25,18.46,1.12,23.24-.09-1.47.46-5,2.88-13.24,5-17-14-25-19-31,0,0,2-11,21.67-34,15.32-18,13.44-26.86,27.83-48.45,0,0,10.53,58.31,52,95.91,0,0,5.7,3.21,4.09-3.1S295,586.7,294,539.7c0,0,17-79,20-132,2.34-13.46,3.62-18.4,6.34-30.51,0,0,39.16-3,64.16,51s2,53,3,71,11,23,7,41c-3.41,15.34,1.17,19.06,2.6,19.82-1.08-.74-3.7-4.07.4-18.82,5-18-3-25-2-29s4-2,4-2a47.27,47.27,0,0,1,20,26c0-22-20-28-24-34-6.2-9.3,8-20,7-36s-8-32-8-32C431.16,436.4,446.32,449.86,451.82,456.9ZM304,441.7c-7.06,63.56-15.29,86.93-22,97-7.26,10.9-14.53,33.34-25.92,49-.82-1.84-2-4.27-3.58-7.48-6-12-31-34-19-111,0,0,9-31,61-67a90.83,90.83,0,0,0,9.49-7.46C305.54,406.2,308,405.7,304,441.7Z"/><path class="cls-17" d="M206.22,424.54l-.18.15Z"/><path class="cls-17" d="M208.35,422.74c-1.12.91-1.78,1.51-2.13,1.8Z"/><path class="cls-17" d="M357,382.7c-24-19-28-11-34-29,3.74-28.76-5.86-48.07-5.86-48.07h0c-2.78-9.16-12.84-36.88-36.66-52a1.9,1.9,0,0,0-2.53.48,3.21,3.21,0,0,0,.63,4.48C300.3,275,316,304.49,316,324.7c0,21-3.74,41.55-51,64-38.43,18.25-40,19.92-56.69,34,5.69-4.62,23.22-17.32,71.69-39,17.14-7.69,18-8,32-21,0,0,2,15-15,28-24.32,18.59-61,59-68,68,0,0,42-45,64-60,11.66-8,12-8,15-12,1,14,1,16,1,16-1.11,35.7-17,132-17,132,8-38,19-112,19.88-127.19.83-14.45,3.81-21.15,8.4-39.83,10,7,32.61,11.27,46.72,28,16,19,18,24,22,34C389,429.7,381,401.7,357,382.7Z"/><path class="cls-15" d="M454.53,461.18q-1.32-2.22-2.67-4.22A21.56,21.56,0,0,1,454.53,461.18Z"/><path class="cls-16" d="M38.54,317.2c-9,45-9,107,16,127s5,39,16,55,17,3,26,25c0,0,1-9-10-17s-15-3-15-25,4-23-7-35c0,0,11-4,22,6s15,20,35,18c0,0-20,0-26-14s-22-18-33-17c0,0-14-1-19-32s1-78,5-88c0,0,59,6,83,36s55,17,55,17-36,6-51-20-64-39-64-39,43-3,75,12,42-9,84,6c0,0-18-11-44-8s-35-4-35-4,22-1,33-17,21-7,41-12a150.19,150.19,0,0,1-28-1c-14-2-17,18-32,22s-25,3-25,3-22-10-42-12S38.54,317.2,38.54,317.2Z"/><path class="cls-17" d="M119.08,340.61a18.43,18.43,0,0,1,6.16,3.66,45.53,45.53,0,0,1,5,5.17c3,3.62,5.62,7.52,8.82,10.89a43.38,43.38,0,0,0,10.9,8.53,45.87,45.87,0,0,0,6.38,2.85,54.92,54.92,0,0,0,6.76,1.89.1.1,0,0,1,.08.12.1.1,0,0,1-.11.08,48.53,48.53,0,0,1-13.56-4,44.69,44.69,0,0,1-11.58-8.3,89.54,89.54,0,0,1-9.25-10.76c-2.82-3.72-5.62-7.4-9.63-9.9a.1.1,0,0,1,0-.14A.1.1,0,0,1,119.08,340.61Z"/><path class="cls-17" d="M156.08,326.61c4.69,1.44,9.46,1.3,14.23.66s9.62-1.23,14.49-1.74a114.65,114.65,0,0,1,14.69-.67,96.54,96.54,0,0,1,14.56,1.74.1.1,0,0,1,.08.12.1.1,0,0,1-.11.08,95.93,95.93,0,0,0-14.54-.94A113.35,113.35,0,0,0,185,327.11c-4.81.68-9.56,1.79-14.5,2.14-1.23.11-2.48.1-3.72.14-.62,0-1.25-.06-1.87-.09a12.1,12.1,0,0,1-1.86-.18,19.06,19.06,0,0,1-7.05-2.34.1.1,0,0,1,.08-.18Z"/><path class="cls-17" d="M152,316.6a109.4,109.4,0,0,0,13.86-3.67,45.33,45.33,0,0,0,6.47-2.77,28,28,0,0,0,5.79-3.93,35.59,35.59,0,0,0,4.76-5.25,72.66,72.66,0,0,1,4.5-5.73,13.79,13.79,0,0,1,2.89-2.35,11.25,11.25,0,0,1,3.47-1.33,19.72,19.72,0,0,1,7.28,0,.1.1,0,0,1,.08.11.1.1,0,0,1-.11.08,19.33,19.33,0,0,0-7.11.35,10.55,10.55,0,0,0-3.18,1.43,12.9,12.9,0,0,0-2.58,2.35c-1.54,1.78-2.79,3.84-4.19,5.83a37,37,0,0,1-4.72,5.65,30.79,30.79,0,0,1-12.73,7.42,48.32,48.32,0,0,1-14.47,2,.1.1,0,0,1,0-.2Z"/><path class="cls-8" d="M20.33,350.85c-11.16,0-15.34-7.28-18.2-15.14-1.83-5,.48-9.63,4.66-18,6.14-12.3,16.42-32.87,25.28-75.81C36.7,219.46,47.73,200.51,64,187.1c14.54-12,32.1-18.61,49.44-18.61,19,0,35.31,8.23,44.69,22.59,5.27,8.07,7,19.86,5.1,35a160.4,160.4,0,0,1-9,34.91c1.58,6.69,1,12.17-1.77,16.29a15.44,15.44,0,0,1-8.62,6.12c-.94,16.05-11.71,21.07-15.36,22.31-.37,16.51-18.2,21.12-21.47,21.83-8.4,8.78-16,13.23-22.46,13.23A10.79,10.79,0,0,1,79,339.43c-9.68,7.56-18.87,11.4-27.34,11.4h0a22.24,22.24,0,0,1-13.44-4.1C31,349.5,25.2,350.85,20.33,350.85Z"/><path class="cls-6" d="M113.42,170c17.64,0,33.83,7.21,43.44,21.91,5.88,9,6.38,21.86,4.87,34a157.26,157.26,0,0,1-9.07,35c4.74,19.06-10.27,21.31-10.27,21.31-.54,19.33-15.41,22.4-15.41,22.4.48,18-20.73,21.57-20.73,21.57C96.16,336.88,89,339.33,84.54,339.33a8.3,8.3,0,0,1-5.61-1.77c-11.44,9.18-20.6,11.77-27.3,11.77C43,349.33,38.47,345,38.47,345l-.13,0c-7.61,3-13.46,4.3-18,4.3-10.31,0-14-6.54-16.79-14.16-4-11,15.14-21,30-93,9.81-47.56,47.3-72.2,79.88-72.2m0-3h0c-17.68,0-35.58,6.73-50.39,19C46.51,199.58,35.3,218.82,30.6,241.59c-8.82,42.74-19,63.21-25.15,75.44C1.22,325.49-1.33,330.6.72,336.22c3,8.38,7.53,16.13,19.61,16.13,4.88,0,10.67-1.29,17.66-3.94a24.28,24.28,0,0,0,13.65,3.92c8.59,0,17.84-3.74,27.51-11.13a12.75,12.75,0,0,0,5.39,1.13c6.84,0,14.65-4.49,23.21-13.34,8-1.67,21.21-8.06,22.18-22.09,5.86-2.21,14.14-8.74,15.33-22.33a16.81,16.81,0,0,0,8.44-6.4c2.93-4.38,3.63-10.1,2.09-17a159.08,159.08,0,0,0,8.91-34.85c1.93-15.54.13-27.67-5.33-36C149.71,175.48,133,167,113.43,167Z"/><path class="cls-9" d="M152.66,260.94c4.74,19.06-10.27,21.31-10.27,21.31-.54,19.33-15.41,22.4-15.41,22.4.48,18-20.73,21.57-20.73,21.57-18.67,19.72-27.31,11.34-27.31,11.34-26.23,21-40.47,7.45-40.47,7.45l-.13,0a20.5,20.5,0,0,1-7.8-11.86c-6-27,18-57,26-101s62-57,84-40c11.52,8.9,18.11,21.93,21.19,33.75A157.26,157.26,0,0,1,152.66,260.94Z"/><path class="cls-13" d="M129.31,206.7c48,37-29.55,127-58.17,109C47,300.52,88.9,175.56,129.31,206.7Z"/><path class="cls-10" d="M119.58,242.77c19.18-1.7,1.26-22-10.56-18.7S95.86,244.87,119.58,242.77Z"/><path class="cls-10" d="M100,251.76c5.87,5,8.32-4.39,1.62-7.59S95.31,247.76,100,251.76Z"/><path class="cls-1" d="M189.54,49.2c1.34,3.27-2.5,17.5,67.88-21.62,0,0,14.88-2.11,23.12,17.62s-5.41,27.71-5.41,27.71S208,115.7,186,101.7c0,0-7-10-6-27S189.54,49.2,189.54,49.2Z"/><path class="cls-12" d="M274.88,65.16h0c-.63-.12-10.78-2.35-15-14.62-3.25-9.51-.29-19.5.13-19.31h0C270.29,35.7,283.54,52.36,274.88,65.16Z"/><path class="cls-2" d="M190.46,48.74a9.53,9.53,0,0,1,.23,1.38,4.53,4.53,0,0,0,.21.88,2.32,2.32,0,0,0,1,1.23,7.47,7.47,0,0,0,4,.81,36.82,36.82,0,0,0,9.15-1.78,153.13,153.13,0,0,0,17.78-6.92c5.82-2.63,11.53-5.5,17.21-8.44s11.27-6.05,16.85-9.19h0l.18-.1h.16c7.19-.61,13.9,3,18.34,8.22a30.66,30.66,0,0,1,3,4.13,38.4,38.4,0,0,1,2.41,4.49,36.54,36.54,0,0,1,3,9.74,23.35,23.35,0,0,1-.64,10.34,19.79,19.79,0,0,1-5.58,8.82A15.22,15.22,0,0,1,275.76,74l-2.11,1.31-4.26,2.57q-4.28,2.53-8.62,4.94a263.3,263.3,0,0,1-36,16.81,105.65,105.65,0,0,1-19.27,5.26,41.75,41.75,0,0,1-10.09.51C192,105,188.54,104,186,101.7a27,27,0,0,0,9.47,1.79,47.69,47.69,0,0,0,9.64-.66A103.6,103.6,0,0,0,224,97.52a268.24,268.24,0,0,0,35.57-16.91q4.31-2.39,8.57-4.9l4.23-2.54,2.09-1.3a12.79,12.79,0,0,0,1.78-1.37,17.33,17.33,0,0,0,4.89-7.71,20.89,20.89,0,0,0,.57-9.25,35.39,35.39,0,0,0-2.78-9.12,36.08,36.08,0,0,0-2.22-4.25,28.37,28.37,0,0,0-2.78-3.87,22.72,22.72,0,0,0-7.35-5.82,19.44,19.44,0,0,0-4.42-1.54,15.66,15.66,0,0,0-4.57-.36l.35-.12h0q-8.44,4.62-17,9c-5.7,3-11.45,5.79-17.29,8.48a154.85,154.85,0,0,1-18,7.16,44,44,0,0,1-9.63,2,15.48,15.48,0,0,1-2.6,0,7.45,7.45,0,0,1-2.72-.76,5.27,5.27,0,0,1-2.22-2.22,7.09,7.09,0,0,1-.54-1.39,5.85,5.85,0,0,0-.29-1Z"/><path class="cls-2" d="M260.21,30.86c-4,6.67.67,29.8,14.67,34.3,0,0-10.67-2-15-14.63S260.21,30.86,260.21,30.86Z"/><path class="cls-2" d="M251.46,49.61c3.33,12.58,7,21.37,22.23,24.06l1.86-1.48S259,74.45,251.46,49.61Z"/><path class="cls-2" d="M260,31.17l0,.06h0A.1.1,0,0,1,260,31.17Z"/><path class="cls-3" d="M168.63,74c3.79,16.9,11.61,24.73,18.26,28.35a16.83,16.83,0,0,0,8.5,3l1.22.09q.42,7.5.41,14.75c-45,12.09-61.73,46.74-61.73,46.74,26.43-67.56-15.36-143.77-20.89-153.4,4.15-4,10-7.42,18-9.35A42.74,42.74,0,0,1,142.37,3c23.29,0,36.72,20.2,36.72,20.2,3.4,9,6.23,17.85,8.57,26.58h0s0,0,0,0c.12.41.23.83.34,1.24l0,.13.06,0a5.22,5.22,0,0,0,2.61,3.14,7.4,7.4,0,0,0,2.72.77,15.09,15.09,0,0,0,2.6,0,44.3,44.3,0,0,0,9.63-2,156.06,156.06,0,0,0,18-7.16q8.76-4,17.3-8.48,5.23-2.7,10.42-5.48a47.35,47.35,0,0,0,.21,17.87c0-.08,0-.17-.08-.26l.15.57a36.34,36.34,0,0,0,1.55,5.24c2.1,6.35,4.89,11.38,10.34,14.67C218,99.35,194,97.91,181.44,90.47A28.78,28.78,0,0,1,168.63,74Z"/><path class="cls-1" d="M148.54,2.2"/><path class="cls-1" d="M243,36.39c-13.42,11.21-49.24,26-57,25.26-8.75-.81-6.5-23-13.5-36.7C167.46,15,157.12,7.5,151.82,4.14,169.25,8.4,179.09,23.2,179.09,23.2c3.4,9,6.23,17.85,8.57,26.58h0s0,0,0,0c.12.41.23.83.34,1.24l0,.13.06,0a5.22,5.22,0,0,0,2.61,3.14,7.4,7.4,0,0,0,2.72.77,15.09,15.09,0,0,0,2.6,0,44.3,44.3,0,0,0,9.63-2,156.06,156.06,0,0,0,18-7.16q8.76-4,17.3-8.48Z"/><path class="cls-1" d="M459.54,235.2c-27.51-2-55-5.16-82.24-9.45-19.15-3-38.49-6.46-57-12.38-6.6-2.11-20.27-8.41-29.52-3.41-8.38,4.53-10,12.55-13.66,21.16-5,11.72-9.71,23.56-14.88,35.21-1.51,3.39-2.39,6.39-5.4,8.28S249,276.73,245.69,277a49,49,0,0,1-21.24-2.87c-6.39-2.33-21.86-11.47-23.25-19.08-.84-4.58,7.16-16.75,9.13-21.22,3.27-7.43,6.62-14.83,9.89-22.26,4.46-10.11,3-22.44,8.17-32,5.87-11,21.71-20.32,32.58-25.15,8.54-3.79,40.06-7.43,52.87-1.73a111.78,111.78,0,0,0,19.45,10.15c7.39,3,50.74,15.53,121.22,15.24,8.79,0,15.86-4.33,19.65,4.09C483,201.73,475.69,222,459.54,235.2Z"/><path class="cls-12" d="M320.15,156.52c4.24,2.13-31.58-3.6-56.78,8.48-28.63,13.72-43.91,44.37-38.65,25.56,1.37-3.86,1.86-7.6,3.68-11,5.87-11,21.71-20.31,32.58-25.14,8.54-3.79,40.06-7.43,52.87-1.73Q316.92,154.73,320.15,156.52Z"/><path class="cls-12" d="M462.68,229.29A44.47,44.47,0,0,1,458,211.86a39.71,39.71,0,0,0,.81,5c-2.23-21.89,8.85-33.53,9.48-34.17l0,0C473.88,178.75,481,209,462.68,229.29Z"/><path class="cls-4" d="M463.87,231.27s-6-.08-3-2.95c7-6.62,11.91-16,12.78-24.62,1.23-12.15-3.72-22.61-5.4-21-7.52,7.19-9.93,17.12-9.93,17.12-2.68,20.13,5.51,31.45,5.51,31.45l-3.14,2.9s-10.19-6.47-9.24-23.11,4.3-18.11,6.61-23.36-1.63-9.7-1.63-9.7c7.88-.54,14.2-3.61,17.7,4.17C477.78,190.2,483.2,211.84,463.87,231.27Z"/><path class="cls-2" d="M451.82,203.7s-4.53,25,7.72,31.5l2.41-2.09S451.82,233.11,451.82,203.7Z"/><path class="cls-2" d="M468.29,182.7s-11.82,11.69-9.5,34.25C458.79,216.95,453,194.39,468.29,182.7Z"/><path class="cls-2" d="M202.92,248.14a65.08,65.08,0,0,1,3.92-9.87c.75-1.58,1.52-3.19,2.18-4.71s1.3-3.26,2-4.86c1.36-3.24,2.81-6.45,4.22-9.67l2.13-4.82c.7-1.6,1.46-3.24,2-4.78a54.45,54.45,0,0,0,2.53-9.92c.61-3.43,1.1-6.95,2-10.47A35.35,35.35,0,0,1,228,178.84,46,46,0,0,1,235,170.4a95.5,95.5,0,0,1,17-13,93.32,93.32,0,0,1,9.48-5.11,54.48,54.48,0,0,1,10.4-3.22,95,95,0,0,1,21.38-1.92,82.28,82.28,0,0,1,10.75.92A44.34,44.34,0,0,1,314.6,151l.13.06.14.09a101.86,101.86,0,0,0,12.08,6.8q3.13,1.51,6.35,2.85a63.19,63.19,0,0,0,6.49,2.22,261.49,261.49,0,0,0,27.32,6.22A453,453,0,0,0,423,175.44l7,.35,7,.21c4.69.18,9.38.18,14.07.23l3.51,0c1.1,0,2.21-.08,3.34-.2,2.26-.23,4.56-.68,7.09-.84a14.39,14.39,0,0,1,4,.24,8.59,8.59,0,0,1,3.89,2,11.08,11.08,0,0,1,2.47,3.35c.31.61.53,1.16.76,1.72s.47,1.13.67,1.71A42.2,42.2,0,0,1,477.3,213a52.26,52.26,0,0,1-16.81,23.32h0l-.45.38-.61,0c-5-.34-10.09-.7-15.12-1.1s-10.07-.88-15.1-1.38c-10.06-1-20.11-2.11-30.14-3.45s-20-2.83-30-4.47-20-3.48-29.84-5.8c-4.95-1.15-9.86-2.47-14.73-3.93-1.22-.35-2.43-.75-3.65-1.13s-2.47-.8-3.65-1.23c-2.38-.86-4.72-1.71-7.08-2.43-4.68-1.41-9.57-2.45-14.13-1.75a14.35,14.35,0,0,0-6.24,2.55,17.9,17.9,0,0,0-4.78,5c-2.6,3.94-4.07,8.79-6.07,13.51L273,245c-2,4.64-3.84,9.34-6,13.9q-1.61,3.43-3.43,6.78L261.67,269a15.21,15.21,0,0,1-2.24,3.13c1.07-2.3,1.54-4.78,2.45-7.18s1.69-4.76,2.59-7.11c1.77-4.72,3.78-9.35,5.68-14l5.79-14c1.91-4.56,3.33-9.53,6.25-14.1a21.26,21.26,0,0,1,5.62-5.91,19.62,19.62,0,0,1,3.61-2,17.82,17.82,0,0,1,4-1.14,26.86,26.86,0,0,1,8.06,0,52.52,52.52,0,0,1,7.64,1.72c2.48.73,4.89,1.59,7.26,2.43,1.2.42,2.32.8,3.53,1.16s2.39.74,3.6,1.08c4.81,1.41,9.67,2.64,14.55,3.8,9.77,2.31,19.66,4.14,29.59,5.79s19.9,3.15,29.89,4.49,20,2.61,30,3.69,20.05,2,30.1,2.88l-1.06.33h0A49.41,49.41,0,0,0,474.19,212a38.84,38.84,0,0,0-.55-26.54q-.29-.8-.63-1.57c-.22-.52-.44-1.06-.67-1.5a7.64,7.64,0,0,0-1.69-2.31,5,5,0,0,0-2.34-1.16,11,11,0,0,0-3-.15c-2.17.15-4.5.61-6.92.87-1.21.14-2.45.23-3.7.25h-3.55c-4.72,0-9.45,0-14.17-.17l-7.08-.2-7.08-.35a456.7,456.7,0,0,1-56.34-6.22,265,265,0,0,1-27.74-6.3,66.86,66.86,0,0,1-6.86-2.35q-3.3-1.37-6.54-2.93a105.58,105.58,0,0,1-12.49-7.11l.27.15a40.83,40.83,0,0,0-9.68-2.69,78.69,78.69,0,0,0-10.25-.93,91.55,91.55,0,0,0-20.56,1.74,51.11,51.11,0,0,0-9.74,3,90.44,90.44,0,0,0-9.1,4.86,92.23,92.23,0,0,0-16.5,12.44,42.81,42.81,0,0,0-6.47,7.8,32.17,32.17,0,0,0-3.76,9.27c-1.66,6.59-2.05,13.84-4.72,20.72-.68,1.74-1.42,3.29-2.13,4.91L218,220.26c-1.44,3.21-2.85,6.43-4.35,9.61-.73,1.61-1.49,3.17-2.29,4.78s-1.8,3.12-2.73,4.62Z"/><path class="cls-4" d="M279,165c33.14,28.33-6.91-6.33-32.48,72.78,0,0,17-67.82,149.18-36.39C395.71,201.42,358.34,183.73,279,165Z"/></svg>