<svg xmlns="http://www.w3.org/2000/svg" viewBox="0 0 364 592.14"><defs><style>.cls-1{fill:#1a1a1a;}.cls-2,.cls-7{fill:#fff;}.cls-2{stroke:#000;stroke-miterlimit:10;stroke-width:1.37px;}.cls-3{fill:#4d4d4d;}.cls-4{fill:#333;}.cls-5{fill:#666;}.cls-6{fill:red;}.cls-8{fill:#c00;}</style></defs><title>logo</title><g id="Balloon"><path class="cls-1" d="M182.44,436.45c0,4.7,0,9.41.07,14.11l.3,14.11c.16,4.7.28,9.41.49,14.11s.4,9.41.7,14.11h-4c.29-4.7.5-9.41.7-14.11s.32-9.41.49-14.11l.3-14.11c.06-4.7.11-9.41.07-14.11Z" transform="translate(0)"/><path class="cls-2" d="M307.68,481.39" transform="translate(0)"/><path class="cls-3" d="M261.61,492.1v14.8c-19.18,0-52.39,19.71-52.39,40.54s21.87,29,21.87,29v15.71h-95.8V576.43s21.87-3.51,21.87-24.06-21.87-23.87-21.87-23.87S96.67,529.91,78,492.1Z" transform="translate(0)"/><path class="cls-4" d="M173.19,551.54c0,14.71-14.26,24.75-27.26,27.23l-.06,13.37H135.29V576.43s21.87-3.5,21.87-24.06-21.87-23.87-21.87-23.87S95.8,529.44,78,492.1H95.51s13.69,28.28,45.05,31.43C160.14,524.78,173.19,528.57,173.19,551.54Z" transform="translate(0)"/><path class="cls-5" d="M261.61,498.28v8.62a47.64,47.64,0,0,0-15.84,3.24c-17.56,6.43-36.55,21.54-36.55,37.3,0,14,9.94,22.33,16.42,26.23a36.47,36.47,0,0,0,5.45,2.76v15.72H219.53v-13c-21-11.19-21-29.69-21-29.69C198.49,501.07,261.61,498.28,261.61,498.28Z" transform="translate(0)"/><path class="cls-6" d="M364,191.69c0,95.1-93,243.2-182,243.2S0,286.79,0,191.69,81.48,0,182,0,364,96.59,364,191.69Z" transform="translate(0)"/><path class="cls-7" d="M286.89,78.53c36.12,32.06,40.35,80.29,28.64,90.69s-34.94-21-71.06-53S173,63.51,184.71,53.11,250.77,46.46,286.89,78.53Z" transform="translate(0)"/><path class="cls-8" d="M274.48,387.36C246.1,416,213.79,434.89,182,434.89c-73.77,0-150.3-101.76-174.32-190.74C2.72,225.78,85.14,423.22,274.48,387.36Z" transform="translate(0)"/><path class="cls-8" d="M185.26,431.76a4.54,4.54,0,0,0-6.52,0c-27,27.75-4.54,16.48,3.26,16.48S212.21,459.52,185.26,431.76Z" transform="translate(0)"/></g></svg>