<?xml version="1.0" encoding="utf-8"?>
<!-- Generator: Adobe Illustrator 21.1.0, SVG Export Plug-In . SVG Version: 6.00 Build 0)  -->
<svg version="1.1" id="Layer_1" xmlns="http://www.w3.org/2000/svg" xmlns:xlink="http://www.w3.org/1999/xlink" x="0px" y="0px"
	 width="50px" height="50px" viewBox="0 0 50 50" style="enable-background:new 0 0 50 50;" xml:space="preserve">
<style type="text/css">
	.st0{fill:#99CCFF;}
	.st1{fill:#6666FF;}
	.st2{fill:#FFFFFF;}
</style>
<g>
	<g>
		<path class="st0" d="M44.8,42.4c1,0.6,3.8,1.4,3.1-0.8c-0.4-1.5-2.4-2.9-3.7-3.6c-3.6-1.7-6.6-4.3-9.7-6.7
			c-7.1-5.3-14.1-10.7-21.2-16C9.8,12.4,6.2,9.3,2,7.2c3.1,3.3,6.8,6,10.3,8.8c3.7,3,7.4,5.9,11.1,8.9c3.8,3,7.7,6,11.4,9.1
			c1.8,1.4,3.4,2.8,5.2,4.2S42.9,41.3,44.8,42.4z M43,38.9c0.7-0.9,4.3,2,3.6,2.8C45.9,42.5,42.3,39.7,43,38.9z"/>
		<g>
			<path class="st1" d="M45,42.2c0.7,0.4,1.5,0.9,2.3,0.7c1.1-0.4,0.5-1.6,0-2.2c-1.6-2.1-3.8-2.7-5.9-4.1c-4.7-3.4-9.3-7.1-14-10.6
				c-4.1-3.1-8.1-6.2-12.1-9.2C11,13.4,6.7,9.8,2,7.3C2,7.2,2,7.2,2.1,7.1c2.8,3.1,6.4,5.6,9.7,8.2c2.3,1.8,4.6,3.6,6.8,5.5
				c4.4,3.5,8.8,7,13.2,10.4c1.8,1.4,3.6,2.9,5.5,4.3c1.2,0.9,2.2,1.8,3.4,2.8C42.2,39.5,43.1,41.2,45,42.2z M44.8,42.6
				c-1.6-0.9-2.6-2.3-3.8-3.6c-0.6-0.6-1.4-1.2-2.2-1.8c-1.7-1.4-3.3-2.7-5-4c-2.6-2-5.3-4.2-7.9-6.2c-3.7-2.9-7.3-5.7-10.9-8.7
				c-4.7-3.6-9.7-7.1-13.6-11.5c4.7,2.6,8.9,6.1,13.2,9.3c2.3,1.7,4.6,3.5,6.9,5.2c5.6,4.2,11.2,8.6,16.8,12.7
				c1.2,0.9,2.3,1.8,3.6,2.6c1.4,1,3.1,1.4,4.4,2.5c0.9,0.8,2.8,2.5,1.7,3.8C47.1,43.9,45.6,43.2,44.8,42.6z"/>
			<path class="st1" d="M42.8,38.8c0.8-1.1,4.8,2.2,3.8,3.1C45.7,42.8,42.1,39.9,42.8,38.8z M43.2,39c-0.5,0.6,2.9,3.2,3.4,2.6
				C47.1,40.9,43.6,38.4,43.2,39z"/>
		</g>
	</g>
	<g>
		<path class="st2" d="M41.5,37.6c-1.1-0.4-2.1-1.2-3-1.9c-1.5-1.1-3-2.3-4.6-3.5c-3.1-2.4-6.3-4.9-9.5-7.4
			c-4.3-3.5-8.8-6.9-13.1-10.3c-0.3-0.2-3.7-2.9-3.7-3c0,0,23.9,18.2,25.3,19.3c1.7,1.3,3.4,2.6,5.1,3.9
			C39.3,35.5,40.7,36.5,41.5,37.6z"/>
	</g>
	<g>
		<path class="st2" d="M42.1,39c1.2,1.5,2.8,3.1,4.8,3.5C44.9,42.5,43.1,40.6,42.1,39z"/>
	</g>
	<g>
		<path class="st2" d="M43.1,37.8c2,0.4,3.8,1.7,4.6,3.5C46.6,39.7,45,38.5,43.1,37.8z"/>
	</g>
</g>
</svg>
