<?xml version="1.0" encoding="utf-8"?>
<!-- Generator: Adobe Illustrator 21.1.0, SVG Export Plug-In . SVG Version: 6.00 Build 0)  -->
<svg version="1.1" id="Layer_1" xmlns="http://www.w3.org/2000/svg" xmlns:xlink="http://www.w3.org/1999/xlink" x="0px" y="0px"
	 width="50px" height="50px" viewBox="0 0 50 50" style="enable-background:new 0 0 50 50;" xml:space="preserve">
<style type="text/css">
	.st0{fill:#99CCFF;}
	.st1{fill:#6666FF;}
	.st2{fill:#FFFFFF;}
</style>
<g>
	<g>
		<path class="st0" d="M45.1,47.7c1.1,0.8,4.1,2.1,3.7-0.5c-0.2-1.8-2.3-3.7-3.7-4.6c-3.8-2.5-6.9-5.9-10.1-9
			c-7.3-7.1-14.5-14.2-21.8-21.3C9.5,8.5,5.8,4.4,1.4,1.4c3,4.2,6.9,7.8,10.5,11.5c3.8,3.9,7.6,7.8,11.4,11.7c3.9,4,7.9,8,11.7,12
			c1.8,1.8,3.5,3.7,5.3,5.5C42.1,43.9,43,46.2,45.1,47.7z M43.5,43.5c0.9-0.9,4.6,2.9,3.7,3.7C46.3,48,42.6,44.3,43.5,43.5z"/>
		<g>
			<path class="st1" d="M45.3,47.5c0.7,0.5,1.6,1.3,2.5,1.1c1.3-0.3,0.8-1.7,0.3-2.5c-1.5-2.6-4-3.6-6.1-5.5
				c-4.9-4.6-9.6-9.4-14.4-14.1c-4.2-4.1-8.3-8.2-12.5-12.2C10.7,9.8,6.4,5,1.3,1.5c0.1-0.1,0.1-0.1,0.2-0.2C4.3,5.2,8,8.6,11.4,12
				c2.4,2.4,4.7,4.8,7,7.2c4.5,4.6,9,9.2,13.5,13.7c1.9,1.9,3.7,3.8,5.6,5.7c1.2,1.2,2.3,2.4,3.5,3.7C42.5,44,43.3,46.1,45.3,47.5z
				 M45,47.9c-1.7-1.3-2.6-3-3.8-4.6c-0.6-0.8-1.4-1.6-2.2-2.4c-1.7-1.8-3.4-3.6-5.1-5.3c-2.7-2.7-5.4-5.5-8.1-8.2
				c-3.8-3.8-7.5-7.6-11.2-11.5C9.8,11.1,4.6,6.4,0.8,0.8c5,3.6,9.3,8.2,13.7,12.5c2.4,2.3,4.7,4.6,7.1,6.9
				c5.8,5.6,11.5,11.4,17.3,16.9c1.2,1.2,2.4,2.4,3.7,3.5c1.5,1.3,3.3,2,4.6,3.5c0.9,1,2.8,3.3,1.4,4.6C47.5,49.8,45.9,48.7,45,47.9
				z"/>
			<path class="st1" d="M43.3,43.3c1.1-1.1,5.1,3.2,3.9,4.1C46,48.3,42.3,44.4,43.3,43.3z M43.7,43.6c-0.6,0.6,2.8,4.1,3.5,3.5
				C47.9,46.3,44.3,43,43.7,43.6z"/>
		</g>
	</g>
	<g>
		<path class="st2" d="M42,41.8c-1.2-0.6-2.2-1.7-3.1-2.6c-1.6-1.5-3.1-3.1-4.7-4.7c-3.2-3.2-6.5-6.5-9.7-9.8
			c-4.4-4.6-9-9.1-13.4-13.6c-0.3-0.3-3.8-3.8-3.8-3.9c0,0,24.6,24.2,26,25.6c1.7,1.7,3.5,3.5,5.3,5.2C39.8,39.1,41.2,40.4,42,41.8z
			"/>
	</g>
	<g>
		<path class="st2" d="M42.5,43.4c1.2,1.9,2.8,3.9,5,4.7C45.2,47.8,43.4,45.4,42.5,43.4z"/>
	</g>
	<g>
		<path class="st2" d="M43.8,42.2c2.2,0.7,4.1,2.5,4.7,4.7C47.5,44.9,45.8,43.3,43.8,42.2z"/>
	</g>
</g>
</svg>
