<svg id="Layer_1" data-name="Layer 1" xmlns="http://www.w3.org/2000/svg" viewBox="0 0 500 500"><title>ListBullets</title><path d="M473.06,223.5c0-23.55-16.06-42.81-34.34-54.9.6-3.63,1.34-41.1-34.66-61.1-31.52-17.51-66-10.65-78,.64a67.51,67.51,0,0,0-116.15-4.88,67.52,67.52,0,0,0-107.43,47,67.42,67.42,0,0,0-75.52,67,67.32,67.32,0,0,0,21.67,49.55A67.51,67.51,0,0,0,124.86,376.7,67.51,67.51,0,0,0,243.1,402a67.5,67.5,0,0,0,117.62-23.11,67.52,67.52,0,0,0,81.61-100.16C458.57,266.42,473.06,245.46,473.06,223.5Z"/></svg>