<?xml version="1.0" standalone="no"?>
<!DOCTYPE svg PUBLIC "-//W3C//DTD SVG 20010904//EN"
 "http://www.w3.org/TR/2001/REC-SVG-20010904/DTD/svg10.dtd">
<svg version="1.0" xmlns="http://www.w3.org/2000/svg"
 width="700.000000pt" height="700.000000pt" viewBox="0 0 700.000000 700.000000"
 preserveAspectRatio="xMidYMid meet">
<metadata>
Created by potrace 1.11, written by Peter Selinger 2001-2013
</metadata>
<g transform="translate(0.000000,700.000000) scale(0.100000,-0.100000)"
fill="#000000" stroke="none">
<path d="M3388 6696 c-1 -2 -34 -6 -73 -10 -262 -23 -590 -147 -827 -312 -394
-273 -688 -662 -843 -1113 -19 -55 -36 -110 -39 -123 -2 -12 -11 -49 -20 -80
-54 -203 -64 -493 -26 -718 5 -30 11 -68 13 -85 3 -16 12 -61 22 -100 9 -38
19 -81 21 -95 11 -52 87 -275 133 -387 182 -442 444 -845 751 -1154 177 -178
291 -268 458 -362 149 -83 250 -118 449 -153 21 -4 20 -8 -28 -67 -57 -71 -62
-103 -14 -101 17 1 53 5 82 9 l52 8 -3 -37 c-2 -20 1 -36 6 -36 5 0 9 10 8 23
-5 54 -3 56 42 45 24 -5 60 -11 80 -13 34 -3 38 -1 38 19 0 12 -22 50 -50 84
-27 34 -46 63 -42 65 4 2 23 4 42 6 86 6 263 63 371 119 606 313 1212 1181
1412 2022 56 233 74 471 52 671 -5 54 -40 234 -60 313 -34 139 -135 376 -227
536 -108 188 -319 441 -470 562 -23 18 -50 41 -60 51 -10 9 -67 50 -126 91
-224 152 -512 270 -740 301 -20 3 -48 8 -62 11 -26 6 -316 15 -322 10z"/>
<path d="M3491 1673 c-2 -121 -10 -274 -16 -282 -2 -4 -249 -7 -549 -6 -541 0
-546 0 -539 -20 18 -60 130 -191 209 -245 99 -69 271 -130 366 -130 47 0 129
-30 173 -65 78 -59 113 -176 81 -273 -27 -80 -117 -158 -201 -174 -18 -3 -20
-12 -23 -89 l-3 -87 521 0 520 1 0 87 0 87 -41 19 c-23 10 -64 40 -92 68 -98
97 -125 218 -72 329 69 147 294 296 488 323 l48 6 -3 81 -3 81 -412 1 c-226 0
-414 3 -418 6 -7 8 -14 127 -14 277 -1 56 -5 102 -10 102 -5 0 -9 -44 -10 -97z"/>
</g>
</svg>
