<svg id="Layer_1" data-name="Layer 1" xmlns="http://www.w3.org/2000/svg" viewBox="0 0 500 500"><title>ListBullets</title><path d="M357.75,232.06c-2.28,8-2.67,14.76,5.83,19,8.27,4.1,13.77-2,18.84-7.86q34.54-39.76,69.24-79.39c8.1-9.25,19.74-11,28.18-4.39,9.33,7.28,10.2,18.54,3.12,29-21.63,32-53.58,63.09-71.78,96.92-12.52,23.28-25.06,106.41-30.57,121-9.31,24.58-23.67,43.62-43.43,60-19.41,16.13-46.26,13.92-69.58,12-73.8-6.13-122.57-52-185-82.15-17-8.22-34.67-15.19-52-22.89-8-3.57-17.53-6.62-18.23-17.09-.73-11.09,6.58-18.22,15.79-23,11.91-6.19,24.31-7.51,37.36-3.38C88.19,337,110.86,344,133.69,350.53c21.87,6.25,27.25,4.94,32.66-18.18,9.25-39.51,8.75-74.58-12.25-109.95-19.91-33.54-37.83-68.27-56.53-102.53a46.9,46.9,0,0,1-4.37-10.75c-2.85-11.22.81-21,9.33-26s18.69-3.18,27.1,5.1a51.89,51.89,0,0,1,7.1,9.25c24,37.77,73.72,116.38,74.76,117.82,4.74,6.5,14.1,15.72,21.64,12.53,4.29-1.81,7-8.64,6.58-14.33-3.9-53.73-8.63-107.4-13.12-161.09-.18-2.12-.48-4.24-.51-6.36-.17-13.35,4.73-22,14-25,8.68-2.74,25.45,2.43,30.87,10.13,1.89,2.68,2.78,6.41,3.14,9.76q9.2,84,18.07,168.05c.62,5.89,1.38,13.69,9.08,14.9,8.28,1.31,11-6,13.08-11.92,16.72-47.2,34.38-96.42,51.16-143.6,4.63-13,12.07-17.5,22.78-14.21,11.27,3.46,18.5,16.3,15.35,27.93C396.77,107.52,364.63,207.79,357.75,232.06Z"/></svg>