<svg id="Layer_1" data-name="Layer 1" xmlns="http://www.w3.org/2000/svg" viewBox="0 0 1920 1033" preserveAspectRatio="none"><defs><style>.cls-1{opacity:0.1;}.cls-2{fill:#db6452;}</style></defs><title>background1</title><g class="cls-1"><polygon class="cls-2" points="1920 79.2 1920 0 0 172 1920 79.2"/><polygon class="cls-2" points="0 24.9 0 64.35 1868.95 276.43 0 24.9"/><polygon class="cls-2" points="1651.76 1033 1718.55 1033 231 226 1651.76 1033"/><polygon class="cls-2" points="1324 299.5 1920 976.44 1920 940.75 1324 299.5"/><path class="cls-2" d="M83.07,310.18a50,50,0,0,0-.9,100L1897.05,426.6,85.83,310.28C85,310.23,83.94,310.19,83.07,310.18Z" transform="translate(0 -47.25)"/><polygon class="cls-2" points="756.63 1033 1920 518.94 1920 432.68 669.38 1033 756.63 1033"/><polygon class="cls-2" points="0 993.35 0 1033 160.3 1033 1603.56 458.49 0 993.35"/><path class="cls-2" d="M199.07,682.14A10,10,0,0,0,201.4,702L1313.07,571.65,199.25,682.12Z" transform="translate(0 -47.25)"/></g></svg>